# xmcd CD database file
#
# Track frame offsets:
#	180
#	23816
#	51054
#	74885
#	93284
#	123858
#	139912
#	156221
#	174117
#	199308
#	220066
#	244369
#
# Disc length: 3626 seconds
#
# Revision: 0
# Processed by: cddbd v1.5.1PL2 Copyright (c) Steve Scherf et al.
# Submitted via: Feurio! 1.68 - http://www.feurio.com
#
DISCID=ac0e280c
DTITLE=PeeWee Bluegang - Pretenders In Paradise
DYEAR=1900
DGENRE=BLUES
TTITLE0=Should I Call Her On The Phone
TTITLE1=Tell Me Why
TTITLE2=Danger Zone
TTITLE3=We're A German Rock'n'Roll Band
TTITLE4=Midnight Run
TTITLE5=I'm Freezing In Hell
TTITLE6=What's Love About
TTITLE7=30 Years On Stage
TTITLE8=Fall In Love
TTITLE9=Got Enough Off That Stuff
TTITLE10=I'm Crazy About You
TTITLE11=Oh, Baby
EXTD=
EXTT0=
EXTT1=
EXTT2=
EXTT3=
EXTT4=
EXTT5=
EXTT6=
EXTT7=
EXTT8=
EXTT9=
EXTT10=
EXTT11=
PLAYORDER=
